<svg width="985" height="508" viewBox="0 0 985 508" fill="none" xmlns="http://www.w3.org/2000/svg">
<g opacity="0.29827">
<path d="M1008.08 175.448L443.182 -344.858V-735.19L28.1096 -758C24.9043 -750.456 4.36709 -728.714 7.57176 -716.596C11.43 -702.102 30.8387 -706.735 36.4776 -697.409C43.0661 -686.42 31.7291 -641.749 28.3457 -628.86C21.8759 -604.445 7.09676 -584.665 2.82235 -560.25C-4.35982 -519.263 10.1824 -522.53 37.7242 -496.927C84.141 -453.742 46.9244 -408.952 58.6176 -358.223C68.1146 -316.878 109.605 -295.554 124.8 -254.211C136.553 -222.37 152.697 -214.233 177.746 -190.947C177.153 -205.084 164.51 -246.785 188.253 -243.102C211.817 -239.478 202.736 -204.669 207.247 -190.115C211.045 -177.997 237.933 -153.761 215.616 -142.593C208.196 -138.91 187.066 -153.582 178.577 -157.503C184.572 -138.791 180.774 -119.367 190.271 -101.487C201.608 -80.162 213.835 -88.3588 228.853 -76.7754C244.344 -64.8355 242.683 -51.1137 235.797 -33.0554C228.615 -14.2247 221.196 -17.1352 232.592 5.55658C240.843 21.9512 254.85 42.7421 266.9 55.2164C273.904 62.4634 281.502 64.1267 288.506 73.3932C294.323 81.1155 292.067 91.2142 299.012 98.1638C310.883 110.104 331.006 110.282 340.384 125.904C350.831 143.309 338.96 156.437 369.706 154.833C371.309 189.643 377.897 221.185 377.541 255.994C394.695 262.825 422.414 254.687 440.399 251.063C458.266 275.18 481.355 258.429 501.774 271.558C510.678 277.26 508.837 291.517 514.239 296.506C525.339 306.723 533.529 300.308 547.301 303.872C557.51 306.486 565.404 313.97 575.138 316.703C584.338 319.257 599.475 313.258 606.301 321.396C614.492 331.138 600.78 348.958 613.127 356.799C623.395 363.333 638.115 347.77 648.088 350.027C659.721 352.7 693.079 383.174 701.271 393.212C710.59 404.677 719.969 426.062 725.25 440.793C733.501 463.841 732.373 475.127 749.408 491.998C760.27 502.75 749.942 503.522 767.63 506.67C779.204 508.749 794.518 500.374 806.212 499.067C830.549 496.394 855.122 501.027 879.102 496.453C901.421 492.176 922.729 485.166 945.64 481.899C965.465 479.048 1000.37 481.246 1017.94 471.801C1036.99 461.643 1038.71 438.654 1011.17 442.932C1008.97 428.26 1018.77 408.003 1007.85 397.847C1023.04 377.056 1028.56 362.384 1030.93 336.959C1032 325.792 1032.48 313.436 1038 304.05C1043.4 294.783 1058.59 289.259 1061.56 281.299C1066.13 268.943 1058.83 263.419 1053.25 256.528C1049.69 252.073 1039.54 254.212 1036.63 250.291C1031.23 243.103 1036.57 235.678 1033.6 228.431C1024.94 207.462 1014.61 199.205 1008.08 175.444C1008.26 179.424 1008.44 183.463 1008.2 187.384" stroke="white" stroke-width="2" stroke-linecap="round" stroke-linejoin="round"/>
</g>
<path d="M729.114 95.9394C720.546 119.321 740.614 127.526 756.675 142.807C761.434 147.336 761.888 154.817 756.879 159.342C746.107 169.074 705.264 154.917 707.854 167.745C710.53 180.994 745.061 199.531 746.618 200.799C760.284 211.932 764.735 240.174 757.208 255.658C751.852 266.676 716.342 262.962 705.172 259.293C632.024 235.266 664.985 238.131 582.817 230.67C576.527 230.099 569.935 229.806 563.894 231.65C557.671 233.549 557.869 241.339 559.957 245.55C566.876 259.506 597.849 283.178 589.514 301.523C586.956 307.152 580.963 310.707 578.264 316.27C576.151 320.627 576.385 325.772 575.445 330.523" stroke="white" stroke-width="2"/>
<path fill-rule="evenodd" clip-rule="evenodd" d="M573.5 338C577.09 338 580 335.09 580 331.5C580 327.91 577.09 325 573.5 325C569.91 325 567 327.91 567 331.5C567 335.09 569.91 338 573.5 338Z" fill="#4AF6CD"/>
<path fill-rule="evenodd" clip-rule="evenodd" d="M661 375C662.657 375 664 373.657 664 372C664 370.343 662.657 369 661 369C659.343 369 658 370.343 658 372C658 373.657 659.343 375 661 375Z" fill="#4AF6CD"/>
<path fill-rule="evenodd" clip-rule="evenodd" d="M725 483C726.657 483 728 481.657 728 480C728 478.343 726.657 477 725 477C723.343 477 722 478.343 722 480C722 481.657 723.343 483 725 483Z" fill="#4AF6CD"/>
<path fill-rule="evenodd" clip-rule="evenodd" d="M365 240C366.657 240 368 238.657 368 237C368 235.343 366.657 234 365 234C363.343 234 362 235.343 362 237C362 238.657 363.343 240 365 240Z" fill="#4AF6CD"/>
<path fill-rule="evenodd" clip-rule="evenodd" d="M729.5 103C733.09 103 736 100.09 736 96.5C736 92.9101 733.09 90 729.5 90C725.91 90 723 92.9101 723 96.5C723 100.09 725.91 103 729.5 103Z" fill="#4AF6CD"/>
<path d="M398.41 322.976L396.17 334H394.218L392.186 324.768L390.138 334H388.234L385.994 322.976H387.482L389.258 332.672L391.386 322.976H393.002L395.178 332.672L397.018 322.976H398.41ZM406.544 329.536C406.544 329.781 406.534 330.032 406.512 330.288H401.136C401.2 331.216 401.435 331.899 401.84 332.336C402.246 332.773 402.768 332.992 403.408 332.992C403.814 332.992 404.187 332.933 404.528 332.816C404.87 332.699 405.227 332.512 405.6 332.256L406.24 333.136C405.344 333.84 404.363 334.192 403.296 334.192C402.123 334.192 401.206 333.808 400.544 333.04C399.894 332.272 399.568 331.216 399.568 329.872C399.568 328.997 399.707 328.224 399.984 327.552C400.272 326.869 400.678 326.336 401.2 325.952C401.734 325.568 402.358 325.376 403.072 325.376C404.192 325.376 405.051 325.744 405.648 326.48C406.246 327.216 406.544 328.235 406.544 329.536ZM405.088 329.104C405.088 328.272 404.923 327.637 404.592 327.2C404.262 326.763 403.766 326.544 403.104 326.544C401.899 326.544 401.243 327.429 401.136 329.2H405.088V329.104ZM411.183 325.376C411.759 325.376 412.276 325.456 412.735 325.616C413.194 325.776 413.631 326.016 414.047 326.336L413.423 327.264C413.039 327.019 412.671 326.837 412.319 326.72C411.978 326.603 411.615 326.544 411.231 326.544C410.751 326.544 410.372 326.645 410.095 326.848C409.818 327.04 409.679 327.307 409.679 327.648C409.679 327.989 409.807 328.256 410.063 328.448C410.33 328.64 410.804 328.827 411.487 329.008C412.426 329.243 413.124 329.563 413.583 329.968C414.052 330.373 414.287 330.928 414.287 331.632C414.287 332.464 413.962 333.099 413.311 333.536C412.671 333.973 411.887 334.192 410.959 334.192C409.679 334.192 408.618 333.824 407.775 333.088L408.559 332.192C409.274 332.736 410.063 333.008 410.927 333.008C411.482 333.008 411.919 332.896 412.239 332.672C412.57 332.437 412.735 332.123 412.735 331.728C412.735 331.44 412.676 331.211 412.559 331.04C412.442 330.859 412.239 330.704 411.951 330.576C411.663 330.437 411.242 330.293 410.687 330.144C409.791 329.909 409.14 329.595 408.735 329.2C408.34 328.805 408.143 328.304 408.143 327.696C408.143 327.259 408.271 326.864 408.527 326.512C408.794 326.149 409.156 325.872 409.615 325.68C410.084 325.477 410.607 325.376 411.183 325.376ZM420.62 333.616C420.065 334 419.436 334.192 418.732 334.192C418.017 334.192 417.457 333.989 417.052 333.584C416.657 333.168 416.46 332.571 416.46 331.792V326.704H414.988V325.568H416.46V323.664L417.932 323.488V325.568H419.932L419.772 326.704H417.932V331.728C417.932 332.165 418.006 332.485 418.156 332.688C418.316 332.88 418.577 332.976 418.94 332.976C419.27 332.976 419.644 332.864 420.06 332.64L420.62 333.616ZM429.179 322.784C429.915 322.784 430.545 322.891 431.067 323.104C431.59 323.307 432.097 323.627 432.587 324.064L431.755 324.992C431.339 324.661 430.929 324.421 430.523 324.272C430.129 324.112 429.702 324.032 429.243 324.032C428.667 324.032 428.193 324.165 427.819 324.432C427.446 324.699 427.259 325.088 427.259 325.6C427.259 325.92 427.323 326.192 427.451 326.416C427.579 326.629 427.814 326.827 428.155 327.008C428.507 327.189 429.014 327.381 429.675 327.584C430.369 327.797 430.945 328.027 431.403 328.272C431.862 328.517 432.23 328.859 432.507 329.296C432.795 329.723 432.939 330.267 432.939 330.928C432.939 331.568 432.779 332.133 432.459 332.624C432.15 333.115 431.697 333.499 431.099 333.776C430.513 334.053 429.814 334.192 429.003 334.192C427.478 334.192 426.23 333.717 425.259 332.768L426.091 331.84C426.539 332.203 426.993 332.48 427.451 332.672C427.91 332.853 428.422 332.944 428.987 332.944C429.67 332.944 430.235 332.779 430.683 332.448C431.131 332.107 431.355 331.616 431.355 330.976C431.355 330.613 431.286 330.315 431.147 330.08C431.009 329.835 430.769 329.616 430.427 329.424C430.097 329.232 429.611 329.04 428.971 328.848C427.841 328.507 427.014 328.096 426.491 327.616C425.969 327.136 425.707 326.485 425.707 325.664C425.707 325.109 425.851 324.613 426.139 324.176C426.438 323.739 426.849 323.397 427.371 323.152C427.905 322.907 428.507 322.784 429.179 322.784ZM439.066 325.376C439.834 325.376 440.431 325.605 440.858 326.064C441.295 326.523 441.514 327.152 441.514 327.952V334H440.042V328.16C440.042 327.563 439.925 327.141 439.69 326.896C439.466 326.651 439.135 326.528 438.698 326.528C438.261 326.528 437.871 326.656 437.53 326.912C437.189 327.168 436.869 327.531 436.57 328V334H435.098V322.192L436.57 322.032V326.736C437.231 325.829 438.063 325.376 439.066 325.376ZM447.641 325.376C448.825 325.376 449.742 325.771 450.393 326.56C451.054 327.349 451.385 328.421 451.385 329.776C451.385 330.651 451.236 331.424 450.937 332.096C450.638 332.757 450.206 333.275 449.641 333.648C449.076 334.011 448.404 334.192 447.625 334.192C446.441 334.192 445.518 333.797 444.857 333.008C444.196 332.219 443.865 331.147 443.865 329.792C443.865 328.917 444.014 328.149 444.313 327.488C444.612 326.816 445.044 326.299 445.609 325.936C446.174 325.563 446.852 325.376 447.641 325.376ZM447.641 326.56C446.18 326.56 445.449 327.637 445.449 329.792C445.449 331.936 446.174 333.008 447.625 333.008C449.076 333.008 449.801 331.931 449.801 329.776C449.801 327.632 449.081 326.56 447.641 326.56ZM457.481 325.376C457.78 325.376 458.057 325.408 458.313 325.472L458.041 326.912C457.785 326.848 457.54 326.816 457.305 326.816C456.782 326.816 456.361 327.008 456.041 327.392C455.721 327.776 455.47 328.373 455.289 329.184V334H453.817V325.568H455.081L455.225 327.28C455.449 326.651 455.753 326.176 456.137 325.856C456.521 325.536 456.969 325.376 457.481 325.376ZM465.872 329.536C465.872 329.781 465.862 330.032 465.84 330.288H460.464C460.528 331.216 460.763 331.899 461.168 332.336C461.574 332.773 462.096 332.992 462.736 332.992C463.142 332.992 463.515 332.933 463.856 332.816C464.198 332.699 464.555 332.512 464.928 332.256L465.568 333.136C464.672 333.84 463.691 334.192 462.624 334.192C461.451 334.192 460.534 333.808 459.872 333.04C459.222 332.272 458.896 331.216 458.896 329.872C458.896 328.997 459.035 328.224 459.312 327.552C459.6 326.869 460.006 326.336 460.528 325.952C461.062 325.568 461.686 325.376 462.4 325.376C463.52 325.376 464.379 325.744 464.976 326.48C465.574 327.216 465.872 328.235 465.872 329.536ZM464.416 329.104C464.416 328.272 464.251 327.637 463.92 327.2C463.59 326.763 463.094 326.544 462.432 326.544C461.227 326.544 460.571 327.429 460.464 329.2H464.416V329.104ZM474.41 321.184V335.568H474.058V321.184H474.41ZM493.237 334H491.765L491.381 329.024C491.221 327.072 491.131 325.573 491.109 324.528L488.725 332.752H487.301L484.789 324.512C484.789 325.845 484.72 327.387 484.581 329.136L484.213 334H482.773L483.685 322.976H485.733L488.053 330.992L490.261 322.976H492.325L493.237 334ZM501.434 332.032C501.434 332.373 501.493 332.629 501.61 332.8C501.728 332.96 501.904 333.083 502.138 333.168L501.802 334.192C501.365 334.139 501.013 334.016 500.746 333.824C500.48 333.632 500.282 333.333 500.154 332.928C499.589 333.771 498.752 334.192 497.642 334.192C496.81 334.192 496.154 333.957 495.674 333.488C495.194 333.019 494.954 332.405 494.954 331.648C494.954 330.752 495.274 330.064 495.914 329.584C496.565 329.104 497.482 328.864 498.666 328.864H499.962V328.24C499.962 327.643 499.818 327.216 499.53 326.96C499.242 326.704 498.8 326.576 498.202 326.576C497.584 326.576 496.826 326.725 495.93 327.024L495.562 325.952C496.608 325.568 497.578 325.376 498.474 325.376C499.466 325.376 500.208 325.621 500.698 326.112C501.189 326.592 501.434 327.28 501.434 328.176V332.032ZM497.978 333.088C498.821 333.088 499.482 332.651 499.962 331.776V329.84H498.858C497.301 329.84 496.522 330.416 496.522 331.568C496.522 332.069 496.645 332.448 496.89 332.704C497.136 332.96 497.498 333.088 497.978 333.088ZM505.981 334.192C505.437 334.192 505.005 334.032 504.685 333.712C504.376 333.381 504.221 332.923 504.221 332.336V322.176L505.693 322V332.304C505.693 332.539 505.731 332.709 505.805 332.816C505.891 332.923 506.029 332.976 506.221 332.976C506.424 332.976 506.605 332.944 506.765 332.88L507.149 333.904C506.797 334.096 506.408 334.192 505.981 334.192ZM510.461 325.568V334H508.989V325.568H510.461ZM509.709 321.52C510.018 321.52 510.269 321.616 510.461 321.808C510.653 322 510.749 322.24 510.749 322.528C510.749 322.816 510.653 323.056 510.461 323.248C510.269 323.429 510.018 323.52 509.709 323.52C509.41 323.52 509.165 323.429 508.973 323.248C508.781 323.056 508.685 322.816 508.685 322.528C508.685 322.24 508.781 322 508.973 321.808C509.165 321.616 509.41 321.52 509.709 321.52ZM517.36 325.376C518.32 325.376 519.083 325.765 519.648 326.544C520.214 327.312 520.496 328.389 520.496 329.776C520.496 330.651 520.363 331.424 520.096 332.096C519.83 332.757 519.446 333.275 518.944 333.648C518.443 334.011 517.856 334.192 517.184 334.192C516.299 334.192 515.552 333.819 514.944 333.072L514.8 334H513.504V322.176L514.976 322V326.624C515.584 325.792 516.379 325.376 517.36 325.376ZM516.832 333.024C517.483 333.024 517.99 332.763 518.352 332.24C518.726 331.707 518.912 330.885 518.912 329.776C518.912 328.635 518.742 327.813 518.4 327.312C518.059 326.8 517.574 326.544 516.944 326.544C516.198 326.544 515.542 326.981 514.976 327.856V331.888C515.2 332.24 515.472 332.517 515.792 332.72C516.123 332.923 516.47 333.024 516.832 333.024ZM529.276 334H528.012L527.9 332.688C527.58 333.211 527.212 333.595 526.796 333.84C526.38 334.075 525.874 334.192 525.276 334.192C524.54 334.192 523.964 333.968 523.548 333.52C523.132 333.072 522.924 332.437 522.924 331.616V325.568H524.396V331.456C524.396 332.032 524.498 332.443 524.7 332.688C524.903 332.923 525.234 333.04 525.692 333.04C526.514 333.04 527.218 332.555 527.804 331.584V325.568H529.276V334ZM532.701 331.968C533.021 331.968 533.288 332.075 533.501 332.288C533.714 332.501 533.821 332.763 533.821 333.072C533.821 333.403 533.725 333.781 533.533 334.208L532.461 336.656H531.405L532.045 334C531.906 333.893 531.794 333.76 531.709 333.6C531.634 333.44 531.597 333.264 531.597 333.072C531.597 332.763 531.704 332.501 531.917 332.288C532.13 332.075 532.392 331.968 532.701 331.968ZM544.331 322.784C544.992 322.784 545.547 322.869 545.995 323.04C546.454 323.211 546.918 323.488 547.387 323.872L546.555 324.848C545.883 324.304 545.174 324.032 544.427 324.032C543.51 324.032 542.768 324.384 542.203 325.088C541.648 325.792 541.371 326.923 541.371 328.48C541.371 329.995 541.648 331.115 542.203 331.84C542.758 332.555 543.494 332.912 544.411 332.912C544.88 332.912 545.291 332.832 545.643 332.672C545.995 332.512 546.368 332.288 546.763 332L547.515 332.96C547.174 333.312 546.736 333.605 546.203 333.84C545.67 334.075 545.056 334.192 544.363 334.192C543.467 334.192 542.667 333.973 541.963 333.536C541.27 333.088 540.726 332.437 540.331 331.584C539.947 330.72 539.755 329.685 539.755 328.48C539.755 327.275 539.958 326.245 540.363 325.392C540.768 324.528 541.318 323.877 542.011 323.44C542.704 323.003 543.478 322.784 544.331 322.784ZM555.3 334L554.468 331.232H550.292L549.46 334H547.924L551.46 322.976H553.38L556.9 334H555.3ZM550.66 330H554.1L552.388 324.24L550.66 330Z" fill="white"/>
<path d="M598.378 87.784C599.039 87.784 599.594 87.8693 600.042 88.04C600.501 88.2107 600.965 88.488 601.434 88.872L600.602 89.848C599.93 89.304 599.221 89.032 598.474 89.032C597.557 89.032 596.815 89.384 596.25 90.088C595.695 90.792 595.418 91.9227 595.418 93.48C595.418 94.9947 595.695 96.1147 596.25 96.84C596.805 97.5547 597.541 97.912 598.458 97.912C598.927 97.912 599.338 97.832 599.69 97.672C600.042 97.512 600.415 97.288 600.81 97L601.562 97.96C601.221 98.312 600.783 98.6053 600.25 98.84C599.717 99.0747 599.103 99.192 598.41 99.192C597.514 99.192 596.714 98.9733 596.01 98.536C595.317 98.088 594.773 97.4373 594.378 96.584C593.994 95.72 593.802 94.6853 593.802 93.48C593.802 92.2747 594.005 91.2453 594.41 90.392C594.815 89.528 595.365 88.8773 596.058 88.44C596.751 88.0027 597.525 87.784 598.378 87.784ZM609.401 99H608.137L608.025 97.688C607.705 98.2107 607.337 98.5947 606.921 98.84C606.505 99.0747 605.999 99.192 605.401 99.192C604.665 99.192 604.089 98.968 603.673 98.52C603.257 98.072 603.049 97.4373 603.049 96.616V90.568H604.521V96.456C604.521 97.032 604.623 97.4427 604.825 97.688C605.028 97.9227 605.359 98.04 605.817 98.04C606.639 98.04 607.343 97.5547 607.929 96.584V90.568H609.401V99ZM616.106 90.376C616.405 90.376 616.682 90.408 616.938 90.472L616.666 91.912C616.41 91.848 616.165 91.816 615.93 91.816C615.407 91.816 614.986 92.008 614.666 92.392C614.346 92.776 614.095 93.3733 613.914 94.184V99H612.442V90.568H613.706L613.85 92.28C614.074 91.6507 614.378 91.176 614.762 90.856C615.146 90.536 615.594 90.376 616.106 90.376ZM622.278 90.376C622.576 90.376 622.854 90.408 623.11 90.472L622.838 91.912C622.582 91.848 622.336 91.816 622.102 91.816C621.579 91.816 621.158 92.008 620.838 92.392C620.518 92.776 620.267 93.3733 620.086 94.184V99H618.614V90.568H619.878L620.022 92.28C620.246 91.6507 620.55 91.176 620.934 90.856C621.318 90.536 621.766 90.376 622.278 90.376ZM630.669 94.536C630.669 94.7813 630.659 95.032 630.637 95.288H625.261C625.325 96.216 625.56 96.8987 625.965 97.336C626.371 97.7733 626.893 97.992 627.533 97.992C627.939 97.992 628.312 97.9333 628.653 97.816C628.995 97.6987 629.352 97.512 629.725 97.256L630.365 98.136C629.469 98.84 628.488 99.192 627.421 99.192C626.248 99.192 625.331 98.808 624.669 98.04C624.019 97.272 623.693 96.216 623.693 94.872C623.693 93.9973 623.832 93.224 624.109 92.552C624.397 91.8693 624.803 91.336 625.325 90.952C625.859 90.568 626.483 90.376 627.197 90.376C628.317 90.376 629.176 90.744 629.773 91.48C630.371 92.216 630.669 93.2347 630.669 94.536ZM629.213 94.104C629.213 93.272 629.048 92.6373 628.717 92.2C628.387 91.7627 627.891 91.544 627.229 91.544C626.024 91.544 625.368 92.4293 625.261 94.2H629.213V94.104ZM636.988 90.376C637.756 90.376 638.353 90.6053 638.78 91.064C639.217 91.5227 639.436 92.152 639.436 92.952V99H637.964V93.16C637.964 92.5627 637.852 92.1413 637.628 91.896C637.404 91.6507 637.073 91.528 636.636 91.528C636.188 91.528 635.793 91.656 635.452 91.912C635.111 92.168 634.791 92.536 634.492 93.016V99H633.02V90.568H634.284L634.412 91.816C634.711 91.368 635.079 91.016 635.516 90.76C635.964 90.504 636.455 90.376 636.988 90.376ZM646.651 98.616C646.096 99 645.467 99.192 644.763 99.192C644.048 99.192 643.488 98.9893 643.083 98.584C642.688 98.168 642.491 97.5707 642.491 96.792V91.704H641.019V90.568H642.491V88.664L643.963 88.488V90.568H645.963L645.803 91.704H643.963V96.728C643.963 97.1653 644.038 97.4853 644.187 97.688C644.347 97.88 644.608 97.976 644.971 97.976C645.302 97.976 645.675 97.864 646.091 97.64L646.651 98.616ZM654.011 87.976V97.672H658.539L658.363 99H652.491V87.976H654.011ZM663.141 90.376C664.325 90.376 665.242 90.7707 665.893 91.56C666.554 92.3493 666.885 93.4213 666.885 94.776C666.885 95.6507 666.736 96.424 666.437 97.096C666.138 97.7573 665.706 98.2747 665.141 98.648C664.576 99.0107 663.904 99.192 663.125 99.192C661.941 99.192 661.018 98.7973 660.357 98.008C659.696 97.2187 659.365 96.1467 659.365 94.792C659.365 93.9173 659.514 93.1493 659.813 92.488C660.112 91.816 660.544 91.2987 661.109 90.936C661.674 90.5627 662.352 90.376 663.141 90.376ZM663.141 91.56C661.68 91.56 660.949 92.6373 660.949 94.792C660.949 96.936 661.674 98.008 663.125 98.008C664.576 98.008 665.301 96.9307 665.301 94.776C665.301 92.632 664.581 91.56 663.141 91.56ZM672.389 90.376C672.89 90.376 673.349 90.4507 673.765 90.6C674.181 90.7387 674.581 90.968 674.965 91.288L674.261 92.216C673.962 92.0027 673.669 91.848 673.381 91.752C673.104 91.6453 672.794 91.592 672.453 91.592C671.77 91.592 671.237 91.864 670.853 92.408C670.48 92.952 670.293 93.7573 670.293 94.824C670.293 95.8907 670.48 96.68 670.853 97.192C671.226 97.6933 671.76 97.944 672.453 97.944C672.784 97.944 673.088 97.896 673.365 97.8C673.642 97.6933 673.952 97.528 674.293 97.304L674.965 98.264C674.197 98.8827 673.338 99.192 672.389 99.192C671.248 99.192 670.346 98.808 669.685 98.04C669.034 97.272 668.709 96.2107 668.709 94.856C668.709 93.96 668.858 93.176 669.157 92.504C669.456 91.832 669.877 91.3093 670.421 90.936C670.976 90.5627 671.632 90.376 672.389 90.376ZM682.481 97.032C682.481 97.3733 682.54 97.6293 682.657 97.8C682.775 97.96 682.951 98.0827 683.185 98.168L682.849 99.192C682.412 99.1387 682.06 99.016 681.793 98.824C681.527 98.632 681.329 98.3333 681.201 97.928C680.636 98.7707 679.799 99.192 678.689 99.192C677.857 99.192 677.201 98.9573 676.721 98.488C676.241 98.0187 676.001 97.4053 676.001 96.648C676.001 95.752 676.321 95.064 676.961 94.584C677.612 94.104 678.529 93.864 679.713 93.864H681.009V93.24C681.009 92.6427 680.865 92.216 680.577 91.96C680.289 91.704 679.847 91.576 679.249 91.576C678.631 91.576 677.873 91.7253 676.977 92.024L676.609 90.952C677.655 90.568 678.625 90.376 679.521 90.376C680.513 90.376 681.255 90.6213 681.745 91.112C682.236 91.592 682.481 92.28 682.481 93.176V97.032ZM679.025 98.088C679.868 98.088 680.529 97.6507 681.009 96.776V94.84H679.905C678.348 94.84 677.569 95.416 677.569 96.568C677.569 97.0693 677.692 97.448 677.937 97.704C678.183 97.96 678.545 98.088 679.025 98.088ZM689.76 98.616C689.206 99 688.576 99.192 687.872 99.192C687.158 99.192 686.598 98.9893 686.192 98.584C685.798 98.168 685.6 97.5707 685.6 96.792V91.704H684.128V90.568H685.6V88.664L687.072 88.488V90.568H689.072L688.912 91.704H687.072V96.728C687.072 97.1653 687.147 97.4853 687.296 97.688C687.456 97.88 687.718 97.976 688.08 97.976C688.411 97.976 688.784 97.864 689.2 97.64L689.76 98.616ZM692.758 90.568V99H691.286V90.568H692.758ZM692.006 86.52C692.315 86.52 692.566 86.616 692.758 86.808C692.95 87 693.046 87.24 693.046 87.528C693.046 87.816 692.95 88.056 692.758 88.248C692.566 88.4293 692.315 88.52 692.006 88.52C691.707 88.52 691.462 88.4293 691.27 88.248C691.078 88.056 690.982 87.816 690.982 87.528C690.982 87.24 691.078 87 691.27 86.808C691.462 86.616 691.707 86.52 692.006 86.52ZM698.969 90.376C700.153 90.376 701.071 90.7707 701.721 91.56C702.383 92.3493 702.713 93.4213 702.713 94.776C702.713 95.6507 702.564 96.424 702.265 97.096C701.967 97.7573 701.535 98.2747 700.969 98.648C700.404 99.0107 699.732 99.192 698.953 99.192C697.769 99.192 696.847 98.7973 696.185 98.008C695.524 97.2187 695.193 96.1467 695.193 94.792C695.193 93.9173 695.343 93.1493 695.641 92.488C695.94 91.816 696.372 91.2987 696.937 90.936C697.503 90.5627 698.18 90.376 698.969 90.376ZM698.969 91.56C697.508 91.56 696.777 92.6373 696.777 94.792C696.777 96.936 697.503 98.008 698.953 98.008C700.404 98.008 701.129 96.9307 701.129 94.776C701.129 92.632 700.409 91.56 698.969 91.56ZM709.113 90.376C709.881 90.376 710.478 90.6053 710.905 91.064C711.342 91.5227 711.561 92.152 711.561 92.952V99H710.089V93.16C710.089 92.5627 709.977 92.1413 709.753 91.896C709.529 91.6507 709.198 91.528 708.761 91.528C708.313 91.528 707.918 91.656 707.577 91.912C707.236 92.168 706.916 92.536 706.617 93.016V99H705.145V90.568H706.409L706.537 91.816C706.836 91.368 707.204 91.016 707.641 90.76C708.089 90.504 708.58 90.376 709.113 90.376Z" fill="white"/>
</svg>
