<?xml version="1.0" encoding="utf-8"?>
<!-- Generator: Adobe Illustrator 19.0.1, SVG Export Plug-In . SVG Version: 6.00 Build 0)  -->
<svg version="1.1" class="ourservices__vector-svg" xmlns="http://www.w3.org/2000/svg" xmlns:xlink="http://www.w3.org/1999/xlink" x="0px" y="0px"
	 viewBox="2 -1.5 503.5 503.5" style="enable-background:new 2 -1.5 503.5 503.5;" xml:space="preserve">
<style type="text/css">
	.st0{fill:#415661;}
	.st1{fill:#3A4D57;}
	.st2{fill:#F4F0D3;}
	.st3{fill:#D3D5D6;}
	.st4{fill:#C8CACB;}
	.st5{fill:#BDBFC0;}
	.st6{fill:#E8E4C8;}
	.st7{fill:#E2574C;}
	.st8{fill:#B4B5B6;}
	.st9{fill:#D65348;}
	.start{fill:#D65348;}
</style>
<path class="st0" d="M291.9,396.4c-3.2,3.2-9.8,3.9-14.2-0.4c-39.8-40.6-97.7-34.3-125.6-5.9c-18.5,18.9-28.8,49.2-42.1,67.7
	c-7.1,10.2-16.1,20.5-26,30.3c0,0-11.8,13.4-33.5,13.4C23.7,501.6,2,479.9,2,453.2c0-20.9,13.4-33.5,13.4-33.5l0.4-0.4l0.4-0.4
	c9.5-9.5,19.3-18.1,29.1-25.2c18.5-13.4,48.4-23.6,67-42.5c28-28.4,34.3-86.6-5.5-126.8c-2-2-3.2-5.1-2.8-7.5c0-2.8,1.6-5.5,3.2-7.1
	l50.8-51.2l184.3,186.3C342.3,344.9,291.9,396.4,291.9,396.4z"/>
<path class="st1" d="M107.6,209.8c-1.6,1.6-2.8,4.3-3.2,7.1c0,2.8,0.8,5.5,2.8,7.5c39.8,40.2,33.9,98.5,5.5,126.8
	c-18.5,18.9-48.8,29.1-67,42.5c-9.8,7.1-19.7,15.8-29.1,25.2l-0.4,0.4l-0.4,0.4c4.7-4.7-13.4,10.2-13.4,33.5
	c0,13.4,5.5,25.2,14.2,34.3l230-229.6l-76.4-87.4l-11.8-11.8C158.4,158.6,107.6,209.8,107.6,209.8z"/>
<path class="st2" d="M501,171.6L332.4,3.4c-3-3-7-4.3-10.9-4.1c-1.7,0.3-3.4,0.7-5.1,1.3c-0.2,0.1-0.3,0.1-0.5,0.2
	c-0.4,0.3-0.8,0.7-1.2,1.1c-0.3,0.4-0.8,0.6-1.2,0.8c-0.9,1.3-2.1,2.3-3.4,3.1l-0.7,0.7c-0.3,0.7-0.7,1.3-1.1,1.9
	c-0.7,0.9-1.7,1.5-2.7,2L203.3,112.5c-5.5,5.5-5.5,14.2,0,19.7l169,168.2c5.5,5.5,14.2,5.5,19.7,0L501,191.3
	C506.5,185.7,506.5,177.1,501,171.6z"/>
<path class="st3" d="M202.5,113.7l197.3,178.4l-72.1,68.1l-193-178L202.5,113.7z"/>
<path class="st4" d="M202.5,113.7l99.6,89.8l-69.7,68.9l-97.7-89.8C134.7,182.6,202.5,113.7,202.5,113.7z"/>
<path class="st5" d="M280.1,257.8c-6.3,6.3-6.3,16.1,0,22.4c6.3,6.3,16.1,6.3,22.4,0c6.3-6.3,6.3-16.1,0-22.4
	C296.6,251.9,286.4,251.9,280.1,257.8z M338.3,293.3c-6.3-6.3-16.1-6.3-22.4,0c-6.3,6.3-6.3,16.1,0,22.4c6.3,6.3,16.1,6.3,22.4,0
	C344.3,309.4,344.3,299.6,338.3,293.3z"/>
<path class="st6" d="M486.8,157.4c-2.8-2.8-7.1-2.8-9.8,0l-85.1,84.7c-2.8,2.8-2.8,7.1,0,9.8s7.1,2.8,9.8,0l85.1-84.7
	C489.6,164.5,489.6,160.1,486.8,157.4z M463.2,133.8c-2.8-2.8-7.1-2.8-9.8,0l-85.1,84.7c-2.8,2.8-2.8,7.1,0,9.8
	c2.8,2.8,7.1,2.8,9.8,0l85.1-84.7C466,140.8,466,136.5,463.2,133.8z M415.5,86.5c-2.8-2.8-7.1-2.8-9.8,0l-85.1,84.3
	c-2.8,2.8-2.8,7.1,0,9.8c2.8,2.8,7.1,2.8,9.8,0l85.1-84.3C418.3,93.6,418.3,89.2,415.5,86.5z M391.9,62.9c-2.8-2.8-7.1-2.8-9.8,0
	L297,147.1c-2.8,2.8-2.8,7.1,0,9.8c2.8,2.8,7.1,2.8,9.8,0l85.1-84.3C394.7,70,394.7,65.6,391.9,62.9z M367.9,38.8
	c-2.8-2.8-7.1-2.8-9.8,0l-84.7,84.7c-2.8,2.8-2.8,7.1,0,9.8c2.8,2.8,7.1,2.8,9.8,0l84.7-84.3C370.6,46.3,370.6,41.6,367.9,38.8z
	 M344.3,15.2c-2.8-2.8-7.1-2.8-9.8,0l-85.1,84.7c-2.8,2.8-2.8,7.1,0,9.8s7.1,2.8,9.8,0l85.1-84.7C347,22.3,347,18,344.3,15.2z"/>
<path class="st7" d="M501.4,171.2L332.4,3c-5.5-5.5-14.2-5.5-19.7,0l-12.2,12.2l74.8,74c5.9,11,4.3,24.8-6.3,34.3l-9.5,11
	c-6.3,5.5-6.3,15,0,20.5s16.9,5.1,22.1-0.8l-29.1,28.4c-5.9,5.5-5.9,14.6,0,20.1s15,5.5,20.9,0l13.4-13.4c-5.5,5.5-5.5,14.6,0,20.1
	c5.5,5.5,14.2,5.5,19.7,0l24.4-25.6c11-11.4,29.1-11.4,40.6,0l18.5,18.1l11.4-11.4C506.9,185.7,506.9,176.7,501.4,171.2L501.4,171.2
	z"/>
<path class="st8" d="M207.6,163.3c6.3,6.3,6.3,16.1,0,22.4c-6.3,6.3-16.1,6.3-22.4,0c-6.3-6.3-6.3-16.1,0-22.4
	C191.4,157,201.3,157,207.6,163.3z M243,198.7c6.3,6.3,6.3,16.1,0,22.4c-6.3,6.3-16.1,6.3-22.4,0c-6.3-6.3-6.3-16.1,0-22.4
	C226.9,192.4,237.1,192.4,243,198.7z"/>
<path class="start" d="M369.5,123.1l-9.5,11c-6.3,5.5-6.3,14.6,0,20.5c5.9,5.1,15.4,5.1,20.9,0.4l9.1-8.7c-5.5,5.5-15.8,6.3-22.1,0.8
	c-6.3-5.5-6.3-14.6,0-20.5l9.5-11c10.2-9.1,11.8-23.2,6.3-33.9L308.8,8.1l-7.9,7.9l74.8,73.6C381.3,100.3,379.7,114.1,369.5,123.1z
	 M360.8,194.8c-5.5-5.1-5.5-13.8-0.8-19.3l-7.1,6.7c-5.9,5.5-5.9,14.6,0,20.1s15,5.5,20.9,0l7.9-7.9
	C375.8,200.3,366.7,200.3,360.8,194.8z M394.7,201.9c-5.5-5.5-5.5-14.6,0-20.1l-7.9,7.9c-5.5,5.5-5.5,14.6,0,20.1s14.2,5.5,19.7,0
	l6.3-6.3C407.3,207.4,399.8,206.6,394.7,201.9z M497.5,194.4l-18.5-17.7c-11-11.4-29.1-11.4-40.2,0l-5.5,5.5c11-9.1,27.6-8.3,37.8,2
	l18.5,17.7l11.4-11.4L497.5,194.4z"/>
<path class="st7" d="M269.2-14.9c3.1-5.6,8.2-10.3,13.6-13c1-0.5,2.2-0.6,3.3-0.5c4.1-2,10.1,2.1,6.9,6.7c-0.2,0.3-0.4,0.5-0.6,0.8
	c0.2-0.2,0.5-0.4,0.7-0.5c0.9-2.4,2.9-4.6,5.2-5.9c0.5-0.3,0.9-0.4,1.4-0.6l-31.1-30.6c-8.7-8.7-23.4-9.7-33.3-2.4l-21.9,16.2
	l38.3,37.5C257.1-10.6,263-13.2,269.2-14.9z"/>
<path class="butafori" d="M505.7,176.8c0-0.5,0.1-1.1,0.2-1.6L329,1c-1-0.4-2.1-0.7-3.2-0.8c-3.1-0.5-7.7-0.1-10.5,1.1
	c-6.2,2.6-12.4,8.9-16.1,14.4c-0.3,0.5-0.7,0.9-1.2,1.3c-0.9,0.8-1.7,1.6-2.5,2.6c-1,1.3-2.3,2.4-3.6,3.6c-0.7,0.7-1.3,1.4-2,2.1
	c-0.3,0.4-0.6,0.8-0.8,1.2c-0.4,0.7-0.9,1.3-1.5,1.7l44.6,43.6c8.8,16.7,4.7,36.5-14.2,48.9l-17.1,14.8
	c-11.2,7.2-12.2,20.9-2.1,29.7c9.3,8.1,25.3,9.3,35,3.2l-49.9,35.9c-10.6,7.3-11.5,20.4-2.1,29.1s24.7,9.8,35.3,2.5l24-17.8
	c-9.9,7.3-10.8,20.4-2.1,29.1c8.7,8.7,23.4,9.7,33.3,2.4l43.9-34.1c17.5-13.4,43.3-13.3,61.6-0.8c1-1.1,2.2-2.2,3.3-3.3
	c2.1-2,3.7-4,5.7-5.7c0.4-0.8,1.1-1.6,2.2-2.1c6.4-2.9,10.9-8.1,13.7-14.3c0.4-1.8,1.1-3.5,1.9-5c0.6-1.8,1-3.6,1.3-5.4
	C505.9,178.2,505.7,177.5,505.7,176.8z"/>
<path class="st9" d="M268.5-14.7L228.1-54L214-43.5L251.5-7C256.7-10.4,262.5-12.9,268.5-14.7z"/>
<path class="st9" d="M296.6,222.8c-8.8-8.1-7.9-20.6,0.7-28.1l-12.7,8.8c-10.6,7.3-11.5,20.4-2.1,29.1s24.7,9.8,35.3,2.5l14.1-10.5
	C321.3,232.6,306,231.5,296.6,222.8z"/>
<path class="st9" d="M313.5,154.6c-10.1-8.8-9.1-21.9,2.1-29.7l17.1-14.8c18.3-11.9,22.4-32.2,14.2-48.3l-47.9-46.7
	c-0.5,0.7-1,1.3-1.6,2.1c-0.1,0.1-0.2,0.2-0.3,0.3c-0.2,0.2-0.4,0.5-0.6,0.7c-0.7,0.9-1.3,1.9-2.1,2.8c-1.2,1.4-2.6,2.5-3.9,3.8
	c-0.7,0.7-1.3,1.4-2,2.1c-0.2,0.3-0.4,0.5-0.7,0.7l0,0c-0.1,0.1-0.3,0.2-0.4,0.4l45.4,44.2c8.2,16.1,4.1,35.9-14.1,47.7l-17.1,14.8
	c-11.2,7.2-12.2,20.3-2.1,29.7c9.5,8.1,25.4,9.3,35.3,3.1l16.2-11.5C341,163.5,323.6,163.4,313.5,154.6z"/>
<path class="st9" d="M353.1,237.2c-8.7-8.7-7.8-21.8,2.1-29.1l-14.1,10.5c-9.9,7.3-10.8,20.4-2.1,29.1c8.7,8.7,23.4,9.7,33.3,2.4
	l11.3-8.4C373.9,246.7,361.3,244.7,353.1,237.2z"/>
<path class="st9" d="M483.5,209.7c2-2,3.8-4,5.9-5.9c-17.7-11-42.2-10.6-59,2.2l-9.9,7.3c16.9-10.2,39.9-9.2,56.4,1.5
	C479.1,213.2,481.5,211.6,483.5,209.7z"/>
<polygon class="st9" points="534.1,233.6 527.4,238.5 527.7,238.8 "/>
</svg>
